<?xml version="1.0" standalone="no"?>
<!DOCTYPE svg PUBLIC "-//W3C//DTD SVG 20010904//EN"
 "http://www.w3.org/TR/2001/REC-SVG-20010904/DTD/svg10.dtd">
<svg version="1.0" xmlns="http://www.w3.org/2000/svg"
 width="620.000000pt" height="620.000000pt" viewBox="0 0 620.000000 620.000000"
 preserveAspectRatio="xMidYMid meet">
<metadata>
Created by potrace 1.16, written by Peter Selinger 2001-2019
</metadata>
<g transform="translate(0.000000,620.000000) scale(0.100000,-0.100000)"
fill="#000000" stroke="none">
<path d="M0 3100 l0 -3100 3100 0 3100 0 0 3100 0 3100 -3100 0 -3100 0 0
-3100z m5440 1233 c17 -109 39 -252 50 -318 10 -66 27 -173 36 -238 16 -104
20 -118 38 -122 12 -2 91 -9 176 -15 85 -7 171 -15 190 -19 33 -7 34 -8 13
-19 -12 -6 -126 -38 -254 -71 l-232 -59 -50 -134 c-158 -428 -332 -889 -351
-928 -21 -44 -23 -46 -151 -96 -164 -65 -175 -68 -175 -54 0 7 31 67 69 133
72 126 173 350 262 580 66 172 180 509 174 515 -2 3 -114 -9 -247 -25 -134
-17 -246 -28 -250 -24 -6 6 288 160 344 180 30 11 30 11 183 521 122 407 127
423 137 407 4 -9 22 -104 38 -214z m-1524 -171 c-3 -6 -105 -79 -226 -163
-121 -84 -220 -156 -220 -161 0 -14 80 -66 173 -113 49 -25 87 -40 84 -33 -2
7 0 24 5 38 l9 25 37 -43 37 -43 125 44 c401 144 502 178 508 172 10 -10 -147
-158 -405 -384 -128 -112 -233 -208 -233 -212 0 -10 310 -12 335 -3 12 5 14 9
4 14 -17 11 20 85 116 230 86 129 116 165 160 188 38 19 466 182 481 182 15 0
174 -149 174 -164 0 -8 -87 -36 -227 -74 -126 -34 -245 -67 -265 -72 l-38 -11
0 -354 c0 -353 0 -355 21 -355 11 0 100 14 196 31 96 16 179 29 186 26 6 -2
-48 -64 -119 -138 -146 -153 -231 -232 -246 -227 -22 8 -488 523 -488 540 0
16 -3 17 -22 7 -88 -47 -330 -219 -511 -364 -69 -56 -60 -58 173 -50 122 4
210 4 210 -2 0 -5 -100 -51 -222 -102 -205 -87 -283 -121 -546 -241 -51 -23
-95 -40 -97 -38 -3 2 20 40 51 84 190 271 353 611 503 1048 23 65 39 121 37
124 -6 5 -294 -145 -319 -166 -17 -15 -147 -239 -242 -417 -128 -240 -377
-669 -395 -680 -9 -5 -141 12 -148 20 -2 2 7 39 21 82 40 121 59 195 53 201
-3 3 -81 -18 -173 -46 -218 -67 -387 -112 -603 -162 -96 -22 -222 -52 -279
-65 -58 -14 -107 -22 -109 -20 -6 6 24 46 193 253 187 230 202 252 176 252 -6
0 -94 -30 -198 -66 -403 -141 -675 -234 -684 -234 -5 0 -9 24 -9 53 0 61 -10
127 -19 127 -3 0 -24 -15 -46 -34 -245 -207 -648 -537 -652 -533 -17 18 825
1617 852 1617 5 0 32 -53 59 -118 27 -64 52 -121 56 -125 8 -9 49 42 238 289
59 77 122 158 141 180 l33 39 -5 -40 c-4 -22 -9 -74 -12 -115 l-6 -75 107
-110 c144 -147 442 -448 478 -482 l29 -28 -32 42 -31 41 83 100 c46 54 139
172 208 262 l124 162 5 -48 c5 -47 6 -49 35 -46 50 4 494 85 502 91 4 3 47 85
95 182 l87 177 53 6 c48 5 124 11 468 34 58 4 107 7 109 6 1 -2 0 -7 -3 -12z"/>
<path d="M2855 3518 c-99 -56 -243 -135 -320 -177 -81 -45 -140 -83 -140 -91
0 -12 52 -23 235 -52 274 -43 260 -41 260 -26 0 6 36 102 80 212 76 191 90
237 73 235 -5 0 -89 -46 -188 -101z"/>
<path d="M1273 3181 c-68 -110 -123 -207 -123 -216 0 -13 7 -15 43 -10 23 3
159 21 302 40 292 39 305 42 305 55 0 9 -388 330 -399 330 -3 0 -61 -90 -128
-199z"/>
<path d="M2760 2966 c-60 -26 -140 -63 -394 -185 -93 -45 -195 -93 -227 -107
-33 -15 -59 -31 -59 -36 0 -5 17 -16 38 -25 30 -13 62 -14 172 -10 121 6 304
28 353 43 11 3 26 22 34 42 64 158 110 251 135 275 35 33 20 34 -52 3z"/>
</g>
</svg>
